HIERARCHY
ROOT Cow_ROOTSHJnt
{
	OFFSET 0.000000 66.749710 104.418190
	CHANNELS 6 Xposition Yposition Zposition Xrotation Yrotation Zrotation
	JOINT Cow_Spine_01SHJnt
	{
		OFFSET 0.000000 -20.599148 -0.645164
		CHANNELS 3 Xrotation Yrotation Zrotation
		JOINT Cow_Spine_02SHJnt
		{
			OFFSET -0.000000 -20.593330 -0.659470
			CHANNELS 3 Xrotation Yrotation Zrotation
			JOINT Cow_Spine_03SHJnt
			{
				OFFSET -0.000000 -20.606550 -0.983307
				CHANNELS 3 Xrotation Yrotation Zrotation
				JOINT Cow_Spine_04SHJnt
				{
					OFFSET -0.000000 -20.599676 1.374176
					CHANNELS 3 Xrotation Yrotation Zrotation
					JOINT Cow_Spine_TopSHJnt
					{
						OFFSET -0.000000 -20.599678 0.913795
						CHANNELS 3 Xrotation Yrotation Zrotation
						JOINT Cow_l_Clavicle_01_01SHJnt
						{
							OFFSET 11.171912 0.000000 0.000000
							CHANNELS 3 Xrotation Yrotation Zrotation
							JOINT Cow_l_FrontLeg_HipSHJnt
							{
								OFFSET 7.976342 -4.953094 -13.093445
								CHANNELS 3 Xrotation Yrotation Zrotation
								JOINT Cow_l_FrontLeg_Knee1SHJnt
								{
									OFFSET 0.000006 -3.929440 -54.085663
									CHANNELS 3 Xrotation Yrotation Zrotation
									JOINT Cow_l_FrontLeg_Knee2SHJnt
									{
										OFFSET 0.000000 1.964958 -22.377888
										CHANNELS 3 Xrotation Yrotation Zrotation
										JOINT Cow_l_FrontLeg_AnkleSHJnt
										{
											OFFSET 0.000000 -0.663105 -5.827117
											CHANNELS 3 Xrotation Yrotation Zrotation
											JOINT Cow_l_FrontLeg_BallSHJnt
											{
												OFFSET 0.000006 -5.970051 -9.033520
												CHANNELS 3 Xrotation Yrotation Zrotation
												JOINT Cow_l_FrontLeg_ToeSHJnt
												{
													OFFSET 0.000006 -7.439106 -0.000235
													CHANNELS 3 Xrotation Yrotation Zrotation
													End Site
													{
														OFFSET 7.439106 0.000004 0.000000
													}
												}
											}
										}
									}
								}
							}
						}
						JOINT Cow_r_Clavicle_01_01SHJnt
						{
							OFFSET -11.171912 0.000000 0.000000
							CHANNELS 3 Xrotation Yrotation Zrotation
							JOINT Cow_r_FrontLeg_HipSHJnt
							{
								OFFSET -7.976342 -4.953094 -13.093445
								CHANNELS 3 Xrotation Yrotation Zrotation
								JOINT Cow_r_FrontLeg_Knee1SHJnt
								{
									OFFSET 0.000006 -3.929440 -54.085663
									CHANNELS 3 Xrotation Yrotation Zrotation
									JOINT Cow_r_FrontLeg_Knee2SHJnt
									{
										OFFSET 0.000000 1.964958 -22.377888
										CHANNELS 3 Xrotation Yrotation Zrotation
										JOINT Cow_r_FrontLeg_AnkleSHJnt
										{
											OFFSET 0.000000 -0.663105 -5.827118
											CHANNELS 3 Xrotation Yrotation Zrotation
											JOINT Cow_r_FrontLeg_BallSHJnt
											{
												OFFSET 0.000006 -5.970051 -9.033520
												CHANNELS 3 Xrotation Yrotation Zrotation
												JOINT Cow_r_FrontLeg_ToeSHJnt
												{
													OFFSET 0.000006 -7.439106 -0.000235
													CHANNELS 3 Xrotation Yrotation Zrotation
													End Site
													{
														OFFSET 7.439106 0.000004 0.000000
													}
												}
											}
										}
									}
								}
							}
						}
						JOINT Cow_Neck_01SHJnt
						{
							OFFSET 0.000000 -25.141075 -3.042923
							CHANNELS 3 Xrotation Yrotation Zrotation
							JOINT Cow_Neck_02SHJnt
							{
								OFFSET -0.000000 -19.440186 5.198975
								CHANNELS 3 Xrotation Yrotation Zrotation
								JOINT Cow_Neck_TopSHJnt
								{
									OFFSET -0.000000 -15.102203 2.823219
									CHANNELS 3 Xrotation Yrotation Zrotation
									JOINT Cow_Head_JawSHJnt
									{
										OFFSET 0.000000 -35.995033 -11.047020
										CHANNELS 3 Xrotation Yrotation Zrotation
										JOINT Cow_Head_JawEndSHJnt
										{
											OFFSET 0.000001 -14.239838 -8.004066
											CHANNELS 3 Xrotation Yrotation Zrotation
											End Site
											{
												OFFSET 0.000001 -14.351303 -7.802444
											}
										}
									}
									JOINT Cow_Head_TopSHJnt
									{
										OFFSET -0.000001 -27.576538 24.239853
										CHANNELS 3 Xrotation Yrotation Zrotation
										JOINT Cow_l_Ear_01_01SHJnt
										{
											OFFSET 14.495198 16.691696 -8.068298
											CHANNELS 3 Xrotation Yrotation Zrotation
											JOINT Cow_l_Ear_01_02SHJnt
											{
												OFFSET 6.722663 2.771584 1.751846
												CHANNELS 3 Xrotation Yrotation Zrotation
												JOINT Cow_l_Ear_01_03SHJnt
												{
													OFFSET 10.716763 -0.206581 1.540665
													CHANNELS 3 Xrotation Yrotation Zrotation
													End Site
													{
														OFFSET 0.679575 -10.457191 -2.729607
													}
												}
											}
										}
										JOINT Cow_r_Ear_01_01SHJnt
										{
											OFFSET -14.495194 16.691696 -8.068306
											CHANNELS 3 Xrotation Yrotation Zrotation
											JOINT Cow_r_Ear_01_02SHJnt
											{
												OFFSET -6.722663 2.771584 1.751839
												CHANNELS 3 Xrotation Yrotation Zrotation
												JOINT Cow_r_Ear_01_03SHJnt
												{
													OFFSET -10.716763 -0.206581 1.540665
													CHANNELS 3 Xrotation Yrotation Zrotation
													End Site
													{
														OFFSET -0.679575 -10.457191 -2.729607
													}
												}
											}
										}
									}
								}
							}
							JOINT Cow_NeckSkin_01_01SHJnt
							{
								OFFSET 0.000001 -3.570503 -28.699036
								CHANNELS 3 Xrotation Yrotation Zrotation
								JOINT Cow_NeckSkin_01_02SHJnt
								{
									OFFSET 0.000001 -3.287460 -13.726460
									CHANNELS 3 Xrotation Yrotation Zrotation
									End Site
									{
										OFFSET 0.000000 -13.726448 3.287464
									}
								}
							}
						}
					}
				}
			}
		}
	}
	JOINT Cow_l_HindLeg_HipSHJnt
	{
		OFFSET 22.626928 3.434624 -17.868790
		CHANNELS 3 Xrotation Yrotation Zrotation
		JOINT Cow_l_HindLeg_Knee1SHJnt
		{
			OFFSET -4.433996 11.629982 -42.020042
			CHANNELS 3 Xrotation Yrotation Zrotation
			JOINT Cow_l_HindLeg_Knee2SHJnt
			{
				OFFSET 0.572979 -5.223473 -32.422234
				CHANNELS 3 Xrotation Yrotation Zrotation
				JOINT Cow_l_HindLeg_AnkleSHJnt
				{
					OFFSET 0.961411 -2.095169 -7.270233
					CHANNELS 3 Xrotation Yrotation Zrotation
					JOINT Cow_l_HindLeg_BallSHJnt
					{
						OFFSET 0.000000 -3.795708 -4.836911
						CHANNELS 3 Xrotation Yrotation Zrotation
						JOINT Cow_l_HindLeg_ToeSHJnt
						{
							OFFSET 0.000000 -6.175804 0.000002
							CHANNELS 3 Xrotation Yrotation Zrotation
							End Site
							{
								OFFSET 6.175808 0.000000 0.000000
							}
						}
					}
				}
			}
		}
	}
	JOINT Cow_r_HindLeg_HipSHJnt
	{
		OFFSET -22.626928 3.434624 -17.868790
		CHANNELS 3 Xrotation Yrotation Zrotation
		JOINT Cow_r_HindLeg_Knee1SHJnt
		{
			OFFSET 4.434002 11.629982 -42.020042
			CHANNELS 3 Xrotation Yrotation Zrotation
			JOINT Cow_r_HindLeg_Knee2SHJnt
			{
				OFFSET -0.572975 -5.223473 -32.422234
				CHANNELS 3 Xrotation Yrotation Zrotation
				JOINT Cow_r_HindLeg_AnkleSHJnt
				{
					OFFSET -0.961411 -2.095169 -7.270234
					CHANNELS 3 Xrotation Yrotation Zrotation
					JOINT Cow_r_HindLeg_BallSHJnt
					{
						OFFSET 0.000000 -3.795708 -4.836910
						CHANNELS 3 Xrotation Yrotation Zrotation
						JOINT Cow_r_HindLeg_ToeSHJnt
						{
							OFFSET 0.000000 -6.175804 0.000002
							CHANNELS 3 Xrotation Yrotation Zrotation
							End Site
							{
								OFFSET 6.175806 0.000000 0.000001
							}
						}
					}
				}
			}
		}
	}
	JOINT Cow_Tail_01_01SHJnt
	{
		OFFSET 0.000000 20.837936 23.982246
		CHANNELS 3 Xrotation Yrotation Zrotation
		JOINT Cow_Tail_01_02SHJnt
		{
			OFFSET -0.000000 7.960037 -11.072281
			CHANNELS 3 Xrotation Yrotation Zrotation
			JOINT Cow_Tail_01_03SHJnt
			{
				OFFSET -0.000000 2.666931 -14.319489
				CHANNELS 3 Xrotation Yrotation Zrotation
				JOINT Cow_Tail_01_04SHJnt
				{
					OFFSET -0.000000 -1.425102 -14.386597
					CHANNELS 3 Xrotation Yrotation Zrotation
					JOINT Cow_Tail_01_05SHJnt
					{
						OFFSET -0.000000 -1.119919 -14.413574
						CHANNELS 3 Xrotation Yrotation Zrotation
						JOINT Cow_Tail_01_06SHJnt
						{
							OFFSET -0.000000 0.772911 -13.741093
							CHANNELS 3 Xrotation Yrotation Zrotation
							JOINT Cow_Tail_01_07SHJnt
							{
								OFFSET -0.000000 3.111671 -14.118168
								CHANNELS 3 Xrotation Yrotation Zrotation
								End Site
								{
									OFFSET -0.000000 14.118164 3.111679
								}
							}
						}
					}
				}
			}
		}
	}
	JOINT Cow_Udder_01_01SHJnt
	{
		OFFSET 0.000000 -7.188259 -41.393276
		CHANNELS 3 Xrotation Yrotation Zrotation
		JOINT Cow_Udder_01_02SHJnt
		{
			OFFSET 0.000001 3.137054 -13.240067
			CHANNELS 3 Xrotation Yrotation Zrotation
			End Site
			{
				OFFSET 0.000001 13.240070 3.137051
			}
		}
	}
}
MOTION
Frames: 5
Frame Time: 0.040000
39.359730 69.397293 70.928131 -2.871954 57.621395 18.806562 -2.990473 1.564490 -24.258117 3.630418 0.085461 15.686843 2.358678 0.291536 17.265451 3.343441 0.737566 15.862570 -2.741053 -0.195714 -24.525449 -0.000000 -0.000001 0.000000 -27.658498 15.951927 -10.282460 113.705383 0.000027 -0.000059 1.757291 -8.861021 -6.221361 49.110498 9.109749 -5.648148 -0.000003 -0.000006 -0.000000 0.000000 -0.000000 0.000001 -0.000000 -0.000001 0.000000 -18.360223 -2.394240 -27.800769 64.907520 0.000023 -0.000032 43.634431 1.736887 -3.453088 30.481843 7.416540 -2.957848 0.000000 -0.000008 -0.000004 -0.000002 0.000000 -0.000002 -5.731556 11.057876 3.288288 -11.862569 11.350245 5.684138 -2.142283 0.252715 -0.936311 -0.000002 0.000005 -0.000002 -0.000007 0.000000 0.000000 -0.000002 0.000007 0.000012 10.652953 -5.092318 19.552502 10.822116 -8.433922 18.550353 -0.000000 -0.000000 -0.000002 42.639945 -0.564154 5.482271 49.124104 -2.408861 -9.514054 0.000000 0.000000 0.000000 9.026758 17.348030 -27.365155 0.000002 0.000007 -0.000002 26.705099 -33.765139 -3.647836 -102.946421 -17.188470 -17.703857 62.158341 14.317062 -9.829660 9.495610 -6.276684 3.653788 -0.000000 -0.000001 0.000000 -0.000000 -0.000000 -0.000000 1.025153 -39.141079 20.012939 -19.398338 5.434613 0.388459 13.241277 -1.184128 -40.776639 9.809426 -16.965717 5.248429 -0.000000 -0.000000 -0.000001 -0.000002 0.000000 0.000000 6.284719 8.353130 2.005875 6.267697 8.302923 -2.561611 6.392153 7.122802 -4.984813 -10.948815 -20.509607 1.361818 -12.654194 -20.550137 -1.555373 -14.395074 -19.940951 -4.718231 0.000000 0.000000 -0.000001 -2.761217 -19.159618 -6.585186 -0.000001 -0.000002 0.000001 
46.800774 71.838455 64.117218 -5.963225 61.347830 18.734642 -2.990482 1.564468 -24.258103 3.630418 0.085465 15.686841 2.358672 0.291535 17.265446 3.343448 0.737570 15.862566 -2.741063 -0.195710 -24.525451 -0.000001 -0.000000 0.000000 -26.394375 15.036730 -8.351126 106.012753 0.000031 -0.000050 10.654390 -10.158641 -2.847842 48.414683 11.294946 -6.725419 -0.000003 -0.000006 0.000001 0.000000 0.000000 0.000002 -0.000001 -0.000000 0.000000 -19.123104 -4.362278 -27.956345 68.427437 0.000020 -0.000036 41.095575 2.558181 -2.477213 31.561187 8.683207 -3.558358 0.000001 -0.000006 -0.000004 -0.000001 -0.000003 -0.000004 -5.373908 9.293260 2.095367 -11.139173 9.696226 3.767295 -2.575821 0.103745 -1.411355 -0.000003 0.000001 0.000009 -0.000003 -0.000001 0.000000 -0.000007 0.000009 0.000012 10.952420 -4.039759 15.702286 10.842405 -8.303112 14.524515 0.000000 0.000003 -0.000005 41.943891 -0.476238 0.497099 47.684006 -4.053123 -14.711538 -0.000001 0.000001 0.000001 9.026755 17.348030 -27.365153 0.000001 0.000006 -0.000003 28.984553 -25.710258 -6.082755 -109.107969 -16.898467 -19.354241 67.419616 13.616403 -9.474639 10.659337 -4.494792 3.200604 -0.000000 0.000002 0.000000 0.000000 0.000001 0.000000 11.771959 -37.987439 21.341698 -27.475235 7.585112 1.084300 17.607604 -1.308780 -37.549552 18.978386 -18.996648 6.561679 -0.000001 0.000001 -0.000001 -0.000000 -0.000001 0.000001 6.362455 10.016409 3.581398 8.729993 10.638021 -2.967413 8.945749 9.220825 -6.096699 -12.333954 -17.057486 0.860525 -13.815475 -17.257130 -0.486248 -15.085767 -17.124749 -2.518476 0.000000 -0.000000 0.000001 -3.324139 -15.543728 -7.852701 -0.000001 0.000002 -0.000000 
54.424820 74.592339 56.670277 -9.953319 64.873553 19.272332 -2.990482 1.564482 -24.258105 3.630419 0.085466 15.686839 2.358672 0.291534 17.265448 3.343443 0.737569 15.862565 -2.741052 -0.195711 -24.525445 -0.000000 0.000001 -0.000000 -24.888615 13.125715 -5.417514 95.593463 0.000031 -0.000045 21.819065 -11.482134 0.117773 47.986911 13.125475 -7.751074 -0.000003 -0.000005 -0.000000 0.000002 -0.000000 0.000001 -0.000000 0.000001 -0.000000 -20.074385 -6.088297 -27.907946 72.389125 0.000023 -0.000031 38.739901 3.105292 -1.538579 33.167002 10.140436 -4.323114 0.000003 -0.000006 -0.000000 0.000001 -0.000002 -0.000001 -4.857380 7.695454 2.525943 -9.881960 8.022713 3.910162 -2.533057 0.189857 -0.939351 0.000002 0.000002 0.000005 -0.000007 -0.000001 0.000002 0.000002 0.000008 0.000011 11.220659 -3.492306 13.413534 10.856435 -8.255807 12.147370 0.000002 0.000003 0.000001 38.513087 -3.471690 -7.053143 42.959499 -5.754174 -18.970338 -0.000001 0.000002 -0.000001 9.026757 17.348032 -27.365161 0.000003 0.000006 -0.000004 30.680308 -15.956956 -11.140185 -111.294558 -16.754686 -19.931431 69.604764 12.965593 -7.674307 11.969569 -3.507319 3.047866 -0.000000 0.000001 -0.000000 -0.000000 0.000002 -0.000000 21.778389 -35.902019 22.616160 -34.270095 9.290719 1.897802 23.295303 2.041715 -32.396858 29.172609 -22.651072 9.668882 0.000001 0.000000 0.000001 -0.000000 0.000001 -0.000001 6.573976 13.347633 5.386785 12.801695 13.752251 -4.385022 13.140601 11.752094 -8.418328 -14.444122 -11.171448 0.275234 -15.487452 -11.618155 0.818248 -15.688620 -12.282715 0.892476 -0.000002 -0.000000 -0.000000 -3.992834 -11.537753 -8.907942 0.000001 0.000001 -0.000000 
61.703754 77.359070 49.352718 -14.592522 67.693738 20.538326 -2.990481 1.564485 -24.258105 3.630415 0.085464 15.686837 2.358676 0.291537 17.265448 3.343445 0.737564 15.862566 -2.741057 -0.195712 -24.525445 -0.000000 -0.000000 0.000000 -22.802317 10.542016 -1.252113 83.026256 0.000032 -0.000037 34.038456 -12.696642 2.645825 47.891166 14.320131 -8.442998 -0.000002 -0.000007 -0.000001 0.000000 0.000002 0.000001 -0.000000 -0.000000 0.000000 -21.042848 -7.440162 -27.666972 74.574239 0.000024 -0.000035 37.459715 3.069411 -0.582138 35.180962 11.826341 -5.292625 0.000001 -0.000007 -0.000002 0.000001 0.000000 0.000003 -3.852465 6.104723 3.977561 -7.717220 6.399953 5.470284 -2.203996 0.553692 0.450986 -0.000002 -0.000006 -0.000001 -0.000007 -0.000000 -0.000000 -0.000003 0.000009 0.000012 11.549250 -3.379863 12.310077 10.989715 -8.417774 10.990223 -0.000001 -0.000001 -0.000000 33.917381 -7.161036 -15.513591 36.664872 -6.438114 -23.745747 0.000000 -0.000000 0.000000 9.026755 17.348028 -27.365158 0.000001 0.000007 -0.000001 31.756394 -6.609539 -16.109010 -110.247743 -16.826176 -19.655772 68.674636 12.408106 -3.637197 12.973372 -2.665652 2.880382 0.000000 0.000003 -0.000000 0.000000 -0.000000 -0.000000 29.872618 -33.260385 23.850192 -38.268898 10.239446 2.468380 28.124434 7.952390 -27.428902 39.105866 -27.229037 14.218425 -0.000002 -0.000001 -0.000000 0.000001 -0.000001 0.000003 6.880402 15.227031 6.432353 16.772940 15.668736 -5.850205 17.168642 13.131703 -10.408764 -17.759433 -1.888996 -0.367429 -18.917708 -2.794450 3.369521 -17.275165 -4.842973 6.998876 0.000000 0.000002 -0.000001 -4.738330 -8.966623 -9.438286 0.000002 -0.000001 -0.000000 
68.109436 79.838699 42.930016 -19.604282 70.090083 22.635563 -2.849965 1.500113 -24.250812 3.536542 0.102473 15.688291 2.227757 0.270087 17.237019 3.173511 0.668011 15.840344 -2.489732 -0.195441 -24.484015 0.000000 0.000001 -0.000000 -20.040701 7.849419 3.284694 69.270631 0.000034 -0.000027 46.351703 -14.590498 4.672031 48.059933 14.937863 -8.838868 0.000001 -0.000006 0.000000 -0.000000 -0.000001 0.000001 0.000000 0.000001 0.000000 -21.887249 -8.351411 -27.249808 75.391116 0.000031 -0.000039 37.574172 2.433721 0.354054 37.271492 13.585420 -6.387576 0.000001 -0.000007 -0.000001 -0.000001 0.000003 0.000003 -2.550773 4.603852 5.819497 -5.189894 5.004443 7.736088 -1.785682 1.076364 2.256426 0.000002 -0.000006 -0.000002 -0.000005 -0.000001 0.000002 -0.000000 0.000007 0.000011 12.501955 -4.063889 11.898200 11.599405 -9.330583 10.527254 0.000003 0.000000 0.000001 27.762386 -10.204682 -24.733008 30.205624 -6.028771 -28.627922 -0.000002 -0.000000 -0.000000 9.026755 17.348044 -27.365149 0.000001 0.000007 -0.000003 32.108723 0.754155 -19.848584 -105.699766 -17.079955 -18.445049 65.552898 11.971121 0.733924 13.432749 -1.115813 2.313136 -0.000000 0.000001 0.000000 0.000000 0.000002 0.000000 34.845935 -29.570440 23.937680 -39.834548 10.598491 2.709440 30.337016 12.104973 -21.769782 46.549481 -28.910565 17.423010 0.000005 0.000001 0.000001 -0.000003 0.000000 0.000001 7.514667 14.797791 5.512508 18.268616 14.371314 -6.171081 18.557018 11.802252 -10.297002 -20.181908 7.413301 -0.871413 -21.537965 5.978078 6.273898 -18.775656 2.647349 12.756490 0.000002 -0.000002 -0.000001 -5.578096 -7.990611 -8.781108 0.000000 0.000001 0.000000 
